<svg width="36" height="36" viewBox="0 0 36 36" fill="none" xmlns="http://www.w3.org/2000/svg">
<circle cx="18" cy="18" r="18" fill="#33B938" fill-opacity="0.1"/>
<path d="M24.875 21.8125V23.875H11.125V21.8125C11.125 21.4344 11.4344 21.125 11.8125 21.125H24.1875C24.5656 21.125 24.875 21.4344 24.875 21.8125Z" fill="#33B938" stroke="#33B938" stroke-width="1.5" stroke-miterlimit="10" stroke-linecap="round" stroke-linejoin="round"/>
<path d="M13.6875 20.625V16.8125H14.0625V20.625H13.6875Z" fill="#33B938" stroke="#33B938"/>
<path d="M16.4375 20.625V16.8125H16.8125V20.625H16.4375Z" fill="#33B938" stroke="#33B938"/>
<path d="M19.1875 20.625V16.8125H19.5625V20.625H19.1875Z" fill="#33B938" stroke="#33B938"/>
<path d="M21.9375 20.625V16.8125H22.3125V20.625H21.9375Z" fill="#33B938" stroke="#33B938"/>
<path d="M25.5625 23.8906H10.4375C10.4367 23.8906 10.436 23.8905 10.4346 23.89C10.4328 23.8892 10.4302 23.8876 10.4275 23.885C10.4249 23.8823 10.4233 23.8797 10.4225 23.8779C10.422 23.8765 10.4219 23.8758 10.4219 23.875C10.4219 23.8742 10.422 23.8735 10.4225 23.8721C10.4233 23.8703 10.4249 23.8677 10.4275 23.865C10.4302 23.8624 10.4328 23.8608 10.4346 23.86C10.436 23.8595 10.4367 23.8594 10.4375 23.8594H25.5625C25.5633 23.8594 25.564 23.8595 25.5654 23.86C25.5672 23.8608 25.5698 23.8624 25.5725 23.865C25.5751 23.8677 25.5767 23.8703 25.5775 23.8721C25.578 23.8735 25.5781 23.8742 25.5781 23.875C25.5781 23.8758 25.578 23.8765 25.5775 23.8779C25.5767 23.8797 25.5751 23.8823 25.5725 23.885C25.5698 23.8876 25.5672 23.8892 25.5654 23.89C25.564 23.8905 25.5633 23.8906 25.5625 23.8906Z" fill="#33B938" stroke="#33B938"/>
<path d="M18.058 10.6909C18.0659 10.6922 18.0707 10.6933 18.0725 10.6938L24.2562 13.1673C24.2675 13.1718 24.302 13.1931 24.335 13.2417C24.368 13.2902 24.375 13.3299 24.375 13.3424V15.6249C24.375 15.7269 24.2895 15.8124 24.1875 15.8124H11.8125C11.7105 15.8124 11.625 15.7269 11.625 15.6249V13.3424C11.625 13.3299 11.632 13.2903 11.665 13.2417C11.698 13.1931 11.7325 13.1718 11.7438 13.1673L17.9275 10.6938C17.9293 10.6933 17.9341 10.6922 17.942 10.6909C17.9573 10.6885 17.9775 10.6868 18 10.6868C18.0225 10.6868 18.0427 10.6885 18.058 10.6909ZM16.4688 13.5624C16.4688 14.4092 17.1532 15.0936 18 15.0936C18.8468 15.0936 19.5312 14.4092 19.5312 13.5624C19.5312 12.7156 18.8468 12.0311 18 12.0311C17.1532 12.0311 16.4688 12.7156 16.4688 13.5624Z" fill="#33B938" stroke="#33B938"/>
</svg>
