<svg width="24" height="25" viewBox="0 0 24 25" fill="none" xmlns="http://www.w3.org/2000/svg">
<path d="M5 10.4167C3.9 10.4167 3 11.3542 3 12.5001C3 13.6459 3.9 14.5834 5 14.5834C6.1 14.5834 7 13.6459 7 12.5001C7 11.3542 6.1 10.4167 5 10.4167Z" stroke="#1C1E23" stroke-width="1.5"/>
<path d="M19 10.4167C17.9 10.4167 17 11.3542 17 12.5001C17 13.6459 17.9 14.5834 19 14.5834C20.1 14.5834 21 13.6459 21 12.5001C21 11.3542 20.1 10.4167 19 10.4167Z" stroke="#1C1E23" stroke-width="1.5"/>
<path d="M12 10.4167C10.9 10.4167 10 11.3542 10 12.5001C10 13.6459 10.9 14.5834 12 14.5834C13.1 14.5834 14 13.6459 14 12.5001C14 11.3542 13.1 10.4167 12 10.4167Z" stroke="#1C1E23" stroke-width="1.5"/>
</svg>
